<svg xmlns="http://www.w3.org/2000/svg"  viewBox="0 0 64 64" width="64px" height="64px"><linearGradient id="f9C8xTx03e42Gx_az9C3Qa" x1="32" x2="32" y1="13" y2="51" gradientUnits="userSpaceOnUse" spreadMethod="reflect"><stop offset="0" stop-color="#1a6dff"/><stop offset="1" stop-color="#c822ff"/></linearGradient><path fill="url(#f9C8xTx03e42Gx_az9C3Qa)" d="M13,51H3v-3h10V51z M13,43H3v3h10V43z M13,38H3v3h10V38z M25,48H15v3h10V48z M25,43H15v3h10 V43z M25,38H15v3h10V38z M13,33H3v3h10V33z M13,28H3v3h10V28z M49,48H39v3h10V48z M49,43H39v3h10V43z M49,38H39v3h10V38z M49,33H39 v3h10V33z M49,28H39v3h10V28z M37,48H27v3h10V48z M37,43H27v3h10V43z M37,38H27v3h10V38z M37,33H27v3h10V33z M37,28H27v3h10V28z M37,23H27v3h10V23z M37,18H27v3h10V18z M61,48H51v3h10V48z M61,43H51v3h10V43z M61,38H51v3h10V38z M61,33H51v3h10V33z M61,28H51v3 h10V28z M61,23H51v3h10V23z M61,18H51v3h10V18z M61,13H51v3h10V13z"/></svg>