<svg xmlns="http://www.w3.org/2000/svg"  viewBox="0 0 100 100" width="50px" height="50px"><circle cx="50" cy="50" r="37" fill="#e6edb7"/><circle cx="13" cy="29" r="2" fill="#9f8066"/><circle cx="77" cy="13" r="1" fill="#f1bc19"/><circle cx="83" cy="15" r="4" fill="#f1bc19"/><circle cx="87" cy="24" r="2" fill="#9f8066"/><circle cx="84" cy="79" r="2" fill="#fbcd59"/><circle cx="18" cy="72" r="4" fill="#fbcd59"/><circle cx="25" cy="87" r="2" fill="#9f8066"/><circle cx="20.5" cy="62.5" r="2.5" fill="#fff"/><circle cx="26" cy="73" r="1" fill="#f1bc19"/><circle cx="80" cy="34" r="1" fill="#fff"/><path fill="#472b29" d="M85.404,52.996C86.124,51.431,86.5,49.73,86.5,48c0-6.617-5.383-12-12-12 c-0.575,0-1.157,0.046-1.779,0.141c-0.134,0.02-0.262,0.054-0.385,0.098C67.989,28.041,59.543,23,50,23 c-9.493,0-18.011,5.122-22.469,13.436c-0.006,0.001-0.012,0.002-0.018,0.004C18.234,38.322,11.5,46.549,11.5,56 c0,11.028,8.972,20,20,20H76c7.444,0,13.5-6.056,13.5-13.5C89.5,59.194,87.98,55.688,85.404,52.996z"/><path fill="#58c5e2" d="M83.524,53.943c-3.481,3.481-5.703,4.132-5.703,4.132c2.66-1.698,5.12-4.729,5.12-4.729 C83.923,51.799,84.5,49.969,84.5,48c0-5.523-4.477-10-10-10c-0.503,0-0.995,0.044-1.477,0.118 c0.609,5.552-0.325,9.203-0.325,9.203c-0.17-4.925-0.554-6.577-1.613-9.113C67.335,30.21,59.417,25,50,25 c-9.289,0-17.318,5.391-21.132,13.214c-0.002,0-0.004,0.001-0.005,0.001c-1.306,3.276-1.461,4.521-1.546,7.79 c0,0-1.627-3.325,0.595-7.605C19.695,40.066,13.5,47.293,13.5,56c0,9.941,8.059,18,18,18H76c6.351,0,11.5-5.149,11.5-11.5 C87.5,59.233,85.713,56.035,83.524,53.943z"/><path fill="#fff" d="M49.717,70.057c-10.211,0-18.519-8.6-18.519-19.17s8.308-19.17,18.519-19.17 c10.212,0,18.52,8.6,18.52,19.17S59.928,70.057,49.717,70.057z M49.717,33.717c-9.108,0-16.519,7.702-16.519,17.17 s7.41,17.17,16.519,17.17s16.52-7.702,16.52-17.17S58.826,33.717,49.717,33.717z"/><path fill="#fff" d="M43.575,62.32c-1.657,0-3-1.343-3-3v-5.313c0-0.004,0-0.009,0-0.013v-9.391c0-1.657,1.343-3,3-3 h7.549c4.265,0,7.734,3.47,7.734,7.734c0,2.079-0.813,4.029-2.289,5.493c-1.476,1.463-3.417,2.247-5.513,2.24l-4.481-0.043 v2.292C46.575,60.978,45.233,62.32,43.575,62.32z M46.575,51.028l4.536,0.043c0.006,0,0.011,0,0.016,0 c0.459,0,0.892-0.178,1.219-0.502c0.33-0.328,0.513-0.766,0.513-1.231c0-0.956-0.778-1.734-1.734-1.734h-4.549L46.575,51.028 L46.575,51.028z"/><path fill="#472b29" d="M76,71.75c-0.138,0-0.25-0.111-0.25-0.25c0-0.138,0.111-0.25,0.25-0.25 c0.237,0,5.846-0.076,7.763-5.829c0.045-0.131,0.186-0.2,0.316-0.158c0.131,0.044,0.202,0.186,0.158,0.316 C82.204,71.68,76.062,71.75,76,71.75z"/><path fill="#472b29" d="M75,71.75h-4c-0.138,0-0.25-0.112-0.25-0.25s0.112-0.25,0.25-0.25h4c0.138,0,0.25,0.112,0.25,0.25 S75.138,71.75,75,71.75z"/><path fill="#472b29" d="M16,57.75c-0.138,0-0.25-0.112-0.25-0.25c0-1.605,0.15-3.137,0.445-4.551 c0.028-0.136,0.16-0.217,0.296-0.194c0.135,0.028,0.222,0.161,0.193,0.296c-0.289,1.381-0.435,2.878-0.435,4.449 C16.25,57.638,16.138,57.75,16,57.75z"/><g><path fill="#472b29" d="M16.854,51.641c-0.024,0-0.049-0.004-0.074-0.011c-0.132-0.041-0.206-0.181-0.165-0.313 c1.879-6.098,6.107-7.97,6.286-8.047c0.126-0.053,0.273,0.004,0.328,0.131c0.055,0.126-0.004,0.273-0.131,0.328 c-0.042,0.018-4.198,1.871-6.006,7.734C17.06,51.571,16.961,51.641,16.854,51.641z"/></g></svg>