<svg xmlns="http://www.w3.org/2000/svg" width="24" height="24" fill="none" stroke="currentColor" stroke-width="2" stroke-linecap="round" stroke-linejoin="round" class="icon icon-tabler icons-tabler-outline icon-tabler-power"><path d="M11.695 3.057a1.04 1.04 0 0 0-.567.459l-.108.184v8.606l.121.197c.068.11.205.253.311.325.471.316 1.102.171 1.407-.325l.121-.197V3.7l-.108-.184a1.005 1.005 0 0 0-1.177-.459m-5.025 2c-.205.073-.358.196-.84.674-1.365 1.354-2.154 2.919-2.496 4.953-.1.589-.099 1.935.001 2.516.458 2.664 1.821 4.733 4.048 6.149 2.767 1.758 6.467 1.758 9.234 0 2.226-1.415 3.59-3.486 4.048-6.149.1-.581.101-1.927.001-2.516-.28-1.667-.881-3.051-1.842-4.244-.318-.395-1.118-1.181-1.326-1.303-.609-.357-1.413.052-1.486.756-.042.41.046.569.647 1.164.658.652.982 1.088 1.34 1.803a6.72 6.72 0 0 1-1.133 7.731 6.857 6.857 0 0 1-3.112 1.853c-1.043.289-2.465.289-3.508 0-1.636-.453-3.111-1.546-3.96-2.934-.692-1.132-1.024-2.292-1.021-3.57.001-.716.046-1.077.215-1.72.155-.59.28-.912.566-1.462.331-.634.674-1.086 1.296-1.703.601-.597.688-.754.646-1.162-.065-.628-.726-1.047-1.318-.836" fill="#000" fill-rule="evenodd" stroke="none"/></svg>