<?xml version="1.0" standalone="no"?>
<!DOCTYPE svg PUBLIC "-//W3C//DTD SVG 20010904//EN"
 "http://www.w3.org/TR/2001/REC-SVG-20010904/DTD/svg10.dtd">
<svg version="1.0" xmlns="http://www.w3.org/2000/svg"
 width="512.000000pt" height="512.000000pt" viewBox="0 0 512.000000 512.000000"
 preserveAspectRatio="xMidYMid meet">
<metadata>
Created by potrace 1.16, written by Peter Selinger 2001-2019
</metadata>
<g transform="translate(0.000000,512.000000) scale(0.100000,-0.100000)"
fill="#000000" stroke="none">
<path d="M0 2560 l0 -2560 2560 0 2560 0 0 2560 0 2560 -2560 0 -2560 0 0
-2560z m2709 2465 c61 -34 120 -96 153 -163 l23 -47 0 -1085 0 -1085 -23 -46
c-37 -75 -87 -125 -159 -161 -57 -28 -77 -33 -142 -33 -66 0 -85 4 -143 33
-73 36 -123 86 -160 161 l-23 46 0 1085 0 1085 23 47 c35 72 96 133 165 168
58 30 68 31 147 28 71 -3 94 -9 139 -33z m1102 -645 c136 -43 399 -273 596
-522 267 -337 431 -730 489 -1168 20 -155 15 -503 -10 -650 -41 -238 -106
-436 -217 -660 -344 -693 -975 -1162 -1744 -1297 -78 -13 -158 -17 -365 -17
-232 -1 -281 2 -392 22 -408 73 -797 257 -1128 531 -420 349 -719 877 -805
1421 -22 143 -31 458 -16 601 39 376 172 749 377 1059 127 192 316 401 494
544 115 93 175 120 266 120 234 -2 395 -241 303 -452 -29 -67 -56 -99 -138
-163 -168 -133 -329 -312 -422 -471 -93 -159 -171 -369 -205 -553 -29 -155
-27 -501 4 -647 124 -583 513 -1039 1067 -1253 115 -45 254 -80 378 -95 142
-18 425 -8 551 19 514 110 939 436 1175 901 143 279 198 550 180 881 -27 480
-282 946 -679 1240 -96 71 -133 114 -159 184 -68 181 35 379 222 430 72 19
105 18 178 -5z"/>
</g>
</svg>
