<svg xmlns="http://www.w3.org/2000/svg"  viewBox="0 0 64 64" width="64px" height="64px"><path fill="#b0edcc" d="M56.326,10.784L44.415,5.193l0.001,0.013c-1.97-0.859-2.618,1.309-2.618,1.309	s-0.221,0.421,0.324,0.442C44.007,7.028,45,8.487,45,10.746V28v6.75v18.445c0,2.259-0.993,3.719-2.878,3.79	c-0.545,0.021-0.324,0.442-0.324,0.442s0.648,2.168,2.618,1.309l-0.001,0.013l11.911-5.591C57.933,52.59,59,51.064,59,49.349V34.75	V28V14.592C59,12.877,57.933,11.351,56.326,10.784z"/><path fill="#97e0bb" d="M59,52h-2c-1.657,0-3-1.343-3-3V15c0-1.657,1.343-3,3-3h2V52z"/><path fill="#72caaf" d="M10.508,35.256l-5.649,5.165c-1.2,1.107-1.132,3.022,0.143,4.042c0,0,1.765,1.643,2.404,2.099 c0.981,0.7,2.271,0.78,3.243,0.068l6.743-5.097L10.508,35.256z"/><path fill="#8d6c9f" d="M9.119,48.127L9.119,48.127c-0.802,0-1.616-0.268-2.295-0.752 c-0.672-0.479-2.318-2.006-2.504-2.179c-0.78-0.621-1.281-1.618-1.318-2.688c-0.037-1.069,0.393-2.098,1.179-2.822l5.652-5.168 c0.382-0.349,0.967-0.35,1.349-0.001l6.883,6.277c0.22,0.201,0.339,0.488,0.325,0.785s-0.159,0.572-0.396,0.752l-6.743,5.097 C10.622,47.888,9.89,48.127,9.119,48.127z M10.509,36.61l-4.976,4.549c-0.354,0.326-0.549,0.793-0.532,1.279 s0.245,0.94,0.625,1.245c0.534,0.493,1.88,1.722,2.359,2.063c0.646,0.46,1.49,0.5,2.071,0.076l5.771-4.362L10.509,36.61z"/><path fill="#72caaf" d="M37.772,10.35c-5.302,4.839-18.211,16.629-18.211,16.629l-4.481,4.097l7.342,6.654l5.681-4.294 l11.876-8.976L40,11.341C40.002,10.181,38.628,9.569,37.772,10.35z"/><path fill="#8d6c9f" d="M22.423,38.729c-0.241,0-0.481-0.087-0.672-0.259l-7.343-6.653 c-0.208-0.189-0.327-0.457-0.328-0.739c-0.001-0.281,0.117-0.55,0.325-0.74l4.48-4.097c0,0,12.909-11.791,18.212-16.629 c0.897-0.82,2.382-0.768,3.227,0.079c0.437,0.438,0.677,1.023,0.676,1.651l-0.021,13.119c0,0.313-0.147,0.607-0.397,0.796 l-17.557,13.27C22.847,38.662,22.635,38.729,22.423,38.729z M16.565,31.073l5.915,5.359l16.5-12.471L39,11.339 c0-0.096-0.029-0.173-0.091-0.234c-0.122-0.121-0.321-0.145-0.463-0.016c-5.304,4.838-18.211,16.629-18.211,16.629L16.565,31.073z"/><path fill="#97e0bb" d="M37.747,53.649c0.856,0.781,2.232,0.174,2.232-0.985V39.575l-11.876-8.976l0,0l-8.543-6.457l0,0 l-8.914-6.737c-0.972-0.712-2.261-0.632-3.243,0.068c-0.639,0.456-2.404,2.099-2.404,2.099c-1.275,1.02-1.343,2.936-0.143,4.042 l7.64,6.985l0,0l7.062,6.457l0,0L37.747,53.649z"/><path fill="#8d6c9f" d="M38.638,55L38.638,55c-0.576,0-1.132-0.217-1.564-0.611L4.184,24.352 c-0.789-0.728-1.219-1.757-1.182-2.826c0.038-1.069,0.539-2.066,1.374-2.735c0.13-0.124,1.776-1.651,2.448-2.131 c1.34-0.958,3.147-0.989,4.414-0.062l29.344,22.18c0.251,0.189,0.397,0.484,0.397,0.798v13.089c0,0.653-0.259,1.256-0.729,1.697 C39.817,54.767,39.229,55,38.638,55z M9.119,17.907c-0.389,0-0.79,0.135-1.133,0.379c-0.48,0.344-1.826,1.572-2.305,2.018 c-0.436,0.353-0.663,0.806-0.681,1.292c-0.017,0.485,0.178,0.953,0.535,1.282l32.885,30.033C38.486,52.971,38.558,53,38.638,53l0,0 c0.088,0,0.179-0.036,0.244-0.098s0.098-0.14,0.098-0.238V40.073L10.045,18.202C9.785,18.013,9.461,17.907,9.119,17.907z"/><path fill="#8d6c9f" d="M55,13h-2c-0.552,0-1,0.448-1,1s0.448,1,1,1h2c0.552,0,1-0.448,1-1S55.552,13,55,13z"/><path fill="#8d6c9f" d="M55,18h-2c-0.552,0-1,0.448-1,1s0.448,1,1,1h2c0.552,0,1-0.448,1-1S55.552,18,55,18z"/><path fill="#8d6c9f" d="M55,23h-2c-0.552,0-1,0.448-1,1s0.448,1,1,1h2c0.552,0,1-0.448,1-1S55.552,23,55,23z"/><path fill="#8d6c9f" d="M55,28h-2c-0.552,0-1,0.448-1,1s0.448,1,1,1h2c0.552,0,1-0.448,1-1S55.552,28,55,28z"/><path fill="#8d6c9f" d="M55,33h-2c-0.552,0-1,0.448-1,1s0.448,1,1,1h2c0.552,0,1-0.448,1-1S55.552,33,55,33z"/><path fill="#8d6c9f" d="M55,38h-2c-0.552,0-1,0.448-1,1s0.448,1,1,1h2c0.552,0,1-0.448,1-1S55.552,38,55,38z"/><path fill="#8d6c9f" d="M55,43h-2c-0.552,0-1,0.448-1,1s0.448,1,1,1h2c0.552,0,1-0.448,1-1S55.552,43,55,43z"/><path fill="#8d6c9f" d="M55,48h-2c-0.552,0-1,0.448-1,1s0.448,1,1,1h2c0.552,0,1-0.448,1-1S55.552,48,55,48z"/><g><path fill="#8d6c9f" d="M43.545,59.937c-1.566,0-2.411-1.322-2.684-2.155c-0.131-0.316-0.175-0.756,0.056-1.155 c0.132-0.228,0.459-0.614,1.168-0.641C43.668,55.925,44,54.435,44,53.194V10.746c0-1.24-0.332-2.73-1.915-2.79 c-0.71-0.027-1.036-0.414-1.168-0.643c-0.23-0.398-0.187-0.839-0.056-1.154c0.272-0.832,1.117-2.154,2.683-2.154 c0.359,0,0.731,0.073,1.108,0.218c0.064,0.015,0.127,0.037,0.188,0.065l11.911,5.591C58.657,10.547,60,12.456,60,14.592v34.757 c0,2.137-1.343,4.046-3.341,4.752L44.84,59.653c-0.063,0.029-0.126,0.052-0.191,0.067C44.272,59.864,43.902,59.937,43.545,59.937z M43.207,57.815c0.199,0.147,0.457,0.155,0.81,0.003c0.037-0.016,0.075-0.03,0.113-0.041l11.771-5.525 C57.193,51.791,58,50.639,58,49.349V14.592c0-1.29-0.807-2.441-2.007-2.864L44.129,6.164c-0.038-0.012-0.075-0.025-0.112-0.041 c-0.35-0.154-0.611-0.147-0.81,0.003C44.954,6.647,46,8.33,46,10.746v42.448C46,55.609,44.954,57.292,43.207,57.815z"/></g></svg>